<svg width="625" height="327" viewBox="0 0 625 327" xmlns="http://www.w3.org/2000/svg"><title>arctic_logo</title><g fill="none" fill-rule="evenodd" stroke="#555" stroke-width="8"><path fill="#F7F7F7" d="M150 5l-42 38-33 61-24 72-3 39-43 69 25 37 48.066-1-6.634-10.58L55 304l-9-15 73-63 69 93 72.887 1-6.91-16L231 293l-9-69 116-32-2 73 34 55h47l-8.623-10.58L392 306l-11-56 45 19 17 38 12-5 7-20 1-26-47-49 24-59 106 13 52 13 21-15-30-42-38-55-15.736-25-21.493 22H498l-43-20-58-14-53 12-67-18z"/><path d="M30.5 319.5l23-16M6.5 284.5l40 4" stroke-linecap="square"/><path d="M119 226l-47-66 3-56"/><path d="M48.5 219h62" stroke-linecap="square"/><path d="M150 5l48 89 24 129.5"/><path d="M189.5 317.5l41-25M344.5 37.5l-6.349 150.304M396.576 26.024L440.5 148.5M498.307 59.73l-56.978 86.753M338.5 222.5l44 28M416.5 206.5l-22 49M425.5 268.5L460 282M369.5 318.5l22-13M516 59l.993.031L548 60M547.5 159.5l41-42" stroke-linecap="square"/></g></svg>