<?xml version="1.0" encoding="UTF-8"?>
<svg width="701px" height="512px" viewBox="0 0 701 512" version="1.1" xmlns="http://www.w3.org/2000/svg" xmlns:xlink="http://www.w3.org/1999/xlink">
    <!-- Generator: Sketch 44.1 (41455) - http://www.bohemiancoding.com/sketch -->
    <title>arctic 2</title>
    <desc>Created with Sketch.</desc>
    <defs></defs>
    <g id="Page-1" stroke="none" stroke-width="1" fill="none" fill-rule="evenodd">
        <polygon id="Path" stroke="#4A4A4A" stroke-width="40" fill="#FFFFFF" points="162.6875 56.0330138 293.89384 21.3789063 427.174366 21.3789063 536.570415 56.0330138 569.856881 30.7376489 650.78125 21.3789063 678.140625 56.0330138 650.78125 130.46875 587.130585 149.855493 558.335938 368.257812 463.914062 454.476563 350.503906 490.632812 240.085937 454.476563 138.140625 368.257812 109.023438 149.855493 48.3671875 130.46875 22.8671875 56.0330138 48.3671875 21.3789063 126.195312 30.7376489"></polygon>
        <polygon id="Oval" stroke="#4A4A4A" stroke-width="20" fill="#4A4A4A" points="216 183 232 167.5 216 152 200 167.5"></polygon>
        <polygon id="Oval-Copy" stroke="#4A4A4A" stroke-width="20" fill="#4A4A4A" points="469 183 485 167.5 469 152 453 167.5"></polygon>
        <polygon id="Path-2" stroke="#4A4A4A" stroke-width="15" fill="#4A4A4A" points="332.234375 336.970601 312.400391 305.985301 305.511719 275 395 275 385.22512 304.807904 363.105009 336.970601"></polygon>
        <polyline id="Path-3" stroke="#4A4A4A" stroke-width="25" points="252 378.143929 267.664062 394 338.664062 384.848034 347.027344 363 355.398438 384.7899 420.96875 390.82754 447.390625 374.568683"></polyline>
        <polygon id="Path-4" stroke="#4A4A4A" stroke-width="20" fill="#4A4A4A" points="116.558594 83.2561734 99.6275106 77 85 83.2561734 89.4453125 92.5 100.779297 104.179688"></polygon>
        <polygon id="Path-5" stroke="#4A4A4A" stroke-width="20" fill="#4A4A4A" points="583 85.5362591 599 101.027344 615 91.9980327 615 77 596.267821 77"></polygon>
    </g>
</svg>