<svg width="701" height="512" xmlns="http://www.w3.org/2000/svg"><g fill="none" fill-rule="evenodd" stroke="#4A4A4A"><path stroke-width="40" fill="#FFF" d="M162.688 56.033l131.206-34.654h133.28L536.57 56.033l33.287-25.295 80.924-9.36 27.36 34.655-27.36 74.436-63.65 19.386-28.795 218.403-94.422 86.219-113.41 36.156-110.418-36.156-101.945-86.22-29.118-218.402-60.656-19.386-25.5-74.436 25.5-34.654 77.828 9.359z"/><path stroke-width="20" fill="#4A4A4A" d="M216 183l16-15.5-16-15.5-16 15.5zm253 0l16-15.5-16-15.5-16 15.5z"/><path stroke-width="15" fill="#4A4A4A" d="M332.234 336.97L312.4 305.986 305.512 275H395l-9.775 29.808-22.12 32.163z"/><path stroke-width="25" d="M252 378.144L267.664 394l71-9.152L347.027 363l8.371 21.79 65.57 6.038 26.423-16.26"/><path stroke-width="20" fill="#4A4A4A" d="M116.559 83.256L99.628 77 85 83.256l4.445 9.244 11.334 11.68zM583 85.536l16 15.491 16-9.029V77h-18.732z"/></g></svg>