<?xml version="1.0" encoding="UTF-8" standalone="no"?>
<svg width="3933px" height="1957px" viewBox="0 0 3933 1957" version="1.1" xmlns="http://www.w3.org/2000/svg" xmlns:xlink="http://www.w3.org/1999/xlink">
    <!-- Generator: Sketch 3.8.3 (29802) - http://www.bohemiancoding.com/sketch -->
    <title>arctic_logo</title>
    <desc>Created with Sketch.</desc>
    <defs></defs>
    <g id="Page-1" stroke="none" stroke-width="1" fill="none" fill-rule="evenodd">
        <polygon id="Path-18" stroke="#979797" fill="#F8FCFF" points="318.264835 1065.96882 470.092687 607.637058 681.125791 243.347331 938.010281 22 1742.3672 117.162676 2168.05818 221.347645 2493.59078 152.268713 2870.63504 235.294563 3153.62847 353.504842 3252.79625 363.011837 3390.24857 245.200651 3473.78042 372.689871 3908.3655 950.884736 3775.10367 1043.58862 3443.24971 980.13264 2781.80807 896.78609 2622.76902 1243.58471 2919.14636 1545.03624 2921.35563 1677.32885 2853.69491 1831.66428 2795.3844 1859.47259 2678.3714 1616.48836 2403.1318 1506.59492 2472.85214 1844.3569 2537.11343 1862.81501 2627.68644 1930.47573 2491.98015 1940.111 2337.71598 1925.45142 2112.08522 1591.29554 2122.30488 1152.91905 1394.35704 1357.09138 1452.10455 1757.71782 1579.60802 1808.34577 1702.17983 1888.12186 1459.67309 1938.26519 1185.71629 1920.13491 745.244563 1358.20314 286.421628 1739.90112 346.556573 1836.16122 466.748071 1891.62818 345.05997 1947.95748 186.840496 1937.02515 19 1717.43069 294.695706 1301.82395"></polygon>
        <path d="M0,1717.40039 L276.054688,1297.63477 L297.829204,1062.18164 L452.849309,596.181641 L650.982039,233.546539 L917.787697,0 L1751.00333,85.1816406 L2164.76197,193.181641 L2494.87678,126.123047 L2878.52361,212.181641 L3197.48584,336.181641 L3248.78745,342.181641 L3369.42374,233.546539 L3414.24078,233.546539 L3469.27533,342.181641 L3932.83594,960.181641 L3771.12976,1070.18164 L3500.92062,1007.00684 L3102.68937,960.181641 L2789.3034,918.181641 L2646.91401,1247.02539 L2935.61714,1536.04102 L2935.61714,1680.02539 L2864.02532,1851.18164 L2782.61189,1878.18164 L2657.7036,1640.18164 L2422.06511,1545.32227 L2485.95471,1832.18164 L2543.94784,1845.18164 L2661.04936,1941.18164 L2494.87673,1951.18164 L2319.78208,1941.18164 L2088.36064,1601.18164 L2097.96227,1181.55664 L1426.46479,1370.18164 L1472.19014,1744.18164 L1589.29166,1791.18164 L1751.00328,1898.18164 L1458.80711,1952.18164 L1168.84145,1934.18164 L738.353962,1385.18164 L297.829204,1744.18164 L368.090115,1836.18164 L490.767896,1890.18164 L342.439306,1956.18164 L177.381929,1948.18164 L0,1717.40039 Z M444.626554,1890.18457 L322.532539,1841.7168 L198.269008,1926.33008 L339.224298,1938.65234 L444.626554,1890.18457 Z M1558.69034,1817.76733 L1441.55615,1781.40869 L1217.17828,1907.39136 L1458.41018,1917.05933 L1665.93401,1879.59595 L1558.69034,1817.76733 Z M2532.31044,1879.29688 L2459.0267,1857.53174 L2355.20692,1915.53955 L2485.69637,1923.46802 L2594.68944,1923.46802 L2532.31044,1879.29688 Z M323.71096,1820.69922 L270.008936,1749.2207 L35.222135,1720.05859 L185.188697,1914.36133 L323.71096,1820.69922 Z M1428.28803,1748.38477 L1224.41464,571.158203 L939.099421,51.953125 L707.806548,249.951172 L489.652643,618.181641 L478.500117,785.181641 L466.232339,951.181641 L500.805168,996.181641 L1181.36415,1893.83008 L1428.28803,1748.38477 Z M2445.59875,1829.02539 L2365.50743,1507.18164 L2136.88066,1368.18164 L2136.88066,1597.18164 L2333.19348,1893.86914 L2445.59875,1829.02539 Z M2878.52361,1706.18164 L2802.68643,1682.18164 L2710.72771,1652.86865 L2756.76999,1744.02515 L2809.37795,1835.18164 L2850.52908,1797.61353 L2878.52361,1706.18164 Z M714.870558,1363.87695 L672.843834,1308.64844 L310.134063,1313.31641 L54.7041482,1694.18164 L156.19213,1709.18164 L274.408901,1725.18164 L501.920421,1537.18164 L714.870558,1363.87695 Z M2905.28967,1554.18164 L2628.70704,1276.18164 L2565.13764,1403.18164 L2507.14451,1530.18164 L2905.28967,1669.77539 L2905.28967,1554.18164 Z M2753.35156,861.291016 L2479.59375,175.189453 L2191.90625,233.439453 L2144.99219,1315.51758 L2305.2838,1419.18164 L2479.59375,1509.76758 L2753.35156,861.291016 Z M2104.53834,1130.18164 L2150.26369,240.181641 L1727.48938,140.234376 L995.005866,50.390625 L1267.41284,551.51758 L1415.20123,1324.74414 L2104.53834,1130.18164 Z M433.778977,966.548826 L454.749314,677.18388 L326.949089,1069.1712 L307.380539,1281.43945 L662.884964,1281.43945 L433.778977,966.548826 Z M3883.47274,943.720702 L3707.85312,723.270513 L3463.39844,958.681646 L3767.78162,1022.73341 L3883.47274,943.720702 Z M3692.99219,701.892573 L3461.67969,387.181641 L3159.56725,387.181641 L2804.5625,875.166016 L3428.55468,955.791016 L3692.99219,701.892573 Z M3107.15038,369.181641 C3107.15038,365.181641 2852.8728,252.181641 2852.8728,252.181641 L2526.1093,174.047852 C2526.1093,174.047852 2778.15088,825.181641 2783.72714,819.181641 C2788.18815,814.181641 2862.91007,713.181641 2948.78452,594.181641 C3035.77422,474.181641 3107.15038,373.181641 3107.15038,369.181641 Z M3392.32505,261.181641 L3281.42335,356.738281 L3433.02799,356.738281 L3392.32505,261.181641 Z" id="Shape" fill="#000000"></path>
    </g>
</svg>