<?xml version="1.0" encoding="UTF-8" standalone="no"?>
<svg width="625px" height="327px" viewBox="0 0 625 327" version="1.1" xmlns="http://www.w3.org/2000/svg" xmlns:xlink="http://www.w3.org/1999/xlink">
    <!-- Generator: Sketch 3.8.3 (29802) - http://www.bohemiancoding.com/sketch -->
    <title>arctic_logo</title>
    <desc>Created with Sketch.</desc>
    <defs></defs>
    <g id="Page-1" stroke="none" stroke-width="1" fill="none" fill-rule="evenodd">
        <polygon id="Path-37" stroke="#555555" stroke-width="8" fill="#F7F7F7" points="150 5 108 43 75 104 51 176 48 215 5 284 30 321 78.0664062 320 71.4316406 309.419922 55 304 46 289 119 226 188 319 260.886719 320 253.976562 304 231 293 222 224 338 192 336 265 370 320 417 320 408.376953 309.419922 392 306 381 250 426 269 443 307 455 302 462 282 463 256 416 207 440 148 546 161 598 174 619 159 589 117 551 62 535.263672 37 513.771484 59 498 59 455 39 397 25 344 37 277 19"></polygon>
        <path d="M30.5,319.5 L53.5,303.5" id="Line" stroke="#555555" stroke-width="8" stroke-linecap="square"></path>
        <path d="M6.5,284.5 L46.5,288.5" id="Line" stroke="#555555" stroke-width="8" stroke-linecap="square"></path>
        <polyline id="Path-40" stroke="#555555" stroke-width="8" points="119 226 72 160 75 104"></polyline>
        <path d="M48.5,219 L110.5,219" id="Line" stroke="#555555" stroke-width="8" stroke-linecap="square"></path>
        <polyline id="Path-42" stroke="#555555" stroke-width="8" points="150 5 198 94 222 223.5"></polyline>
        <path d="M189.5,317.5 L230.5,292.5" id="Line" stroke="#555555" stroke-width="8" stroke-linecap="square"></path>
        <path d="M344.5,37.5 L338.151123,187.804199" id="Line" stroke="#555555" stroke-width="8" stroke-linecap="square"></path>
        <path d="M396.576416,26.0239258 L440.5,148.5" id="Line" stroke="#555555" stroke-width="8" stroke-linecap="square"></path>
        <path d="M498.306641,59.7307129 L441.328857,146.482666" id="Line" stroke="#555555" stroke-width="8" stroke-linecap="square"></path>
        <path d="M338.5,222.5 L382.5,250.5" id="Line" stroke="#555555" stroke-width="8" stroke-linecap="square"></path>
        <path d="M416.5,206.5 L394.5,255.5" id="Line" stroke="#555555" stroke-width="8" stroke-linecap="square"></path>
        <path d="M425.5,268.5 L460,282" id="Line" stroke="#555555" stroke-width="8" stroke-linecap="square"></path>
        <path d="M369.5,318.5 L391.5,305.5" id="Line" stroke="#555555" stroke-width="8" stroke-linecap="square"></path>
        <path d="M516,59 C516,59 516.452362,59.0141363 516.992786,59.0310246 L548,60" id="Line" stroke="#555555" stroke-width="8" stroke-linecap="square"></path>
        <path d="M547.5,159.5 L588.5,117.5" id="Line" stroke="#555555" stroke-width="8" stroke-linecap="square"></path>
    </g>
</svg>